<svg width="181" height="248" viewBox="0 0 181 248" fill="none" xmlns="http://www.w3.org/2000/svg">
<path d="M79.5965 199.725C78.0261 200.207 77.0244 200.318 76.4773 199.661C58.3614 177.897 17.155 127.402 7.73451 105.589C6.2402 102.47 5.32792 99.5784 4.31301 95.2238C1.69226 83.9792 1.75195 67.8212 6.20107 55.1155C7.86902 50.3522 9.4943 46.9483 13.4992 43.1064C7.81187 59.1083 9.78256 78.329 12.738 91.3349C13.6745 95.456 14.7099 98.9532 15.6318 101.526C18.5266 114.612 36.867 143.253 42.1384 151.081C46.3555 157.344 72.1625 187.04 79.5965 199.725Z" fill="black"/>
<path d="M94.6835 199.523C93.1022 200.52 90.8924 199.702 88.9541 199.919C84.4503 170.075 72.1206 95.5559 71.3926 78.5588C71.0299 74.6265 70.6752 69.8173 70.4019 64.5475C69.2866 43.0426 69.5273 13.8686 76.1126 5.32523C79.7371 2.86434 88.1076 -0.38693 95.6309 3.63038C96.695 4.19862 97.4185 4.8016 98.7465 6.27643C104.903 15.0879 102.697 43.3049 101.162 65.3175C100.81 70.3575 100.656 74.8476 100.294 78.6749L94.6835 199.523Z" fill="black"/>
<path d="M126.603 81.632C123.684 99.7114 106.779 170.737 99.8134 200.183C101.479 200.514 100.38 200.709 102.99 200.248C114.923 171.579 145.409 105.082 148.641 89.3251C149.687 85.3647 150.752 80.2189 151.556 74.4297C154.043 56.526 154.032 32.4689 143.204 18.2933C142.687 17.6157 142.144 16.9606 141.576 16.3299C138.766 13.554 130.158 7.79095 118.215 6.94519C121.192 9.32256 123.751 13.3801 126.54 20.3604C130.114 29.3088 129.514 50.2203 128.155 66.7084C127.682 72.45 127.117 77.6552 126.603 81.632Z" fill="black"/>
<path d="M140.645 146.088C136.134 153.713 113.252 186.431 105.59 200.263C106.024 200.61 105.59 200.263 106.11 200.274C107.648 201.335 108.009 199.777 109.039 200.274C127.04 177.49 166.052 127.397 172.524 110.565C174.888 104.418 175.803 101.864 176.951 96.7404C178.674 89.0554 179.303 83.9213 179.379 80.3128C179.634 68.2487 176.941 59.5872 173.449 51.7258C169.557 42.9613 167.341 40.6561 164.228 37.8617C166.391 42.6482 168.174 48.7153 169.272 56.4638C170.589 65.7582 169.665 75.1465 168.031 82.9724C166.535 90.1392 164.443 95.9957 162.93 99.2698C161.006 104.537 146.284 136.556 140.645 146.088Z" fill="black"/>
<path d="M85.3151 199.844C82.5365 200.94 82.4605 199.845 82.2067 199.264C77.7411 189.041 56.9337 162.397 49.9569 149.516C41.2358 133.415 29.0652 109.041 26.2315 93.0617C25.6328 89.6856 24.9152 84.9017 24.304 79.5134C22.9867 67.8997 22.1637 53.478 24.0912 44.2906C27.6183 27.4782 36.4268 18.0117 43.7544 14.3039C49.6165 11.3377 53.7904 10.6523 54.9981 10.6773C51.6213 13.7455 48.0615 18.8274 44.8275 27.8346C41.9681 35.7986 42.8711 54.7965 44.3317 69.7969C44.8384 75.001 45.4122 79.724 45.9193 83.3381C46.9362 103.815 75.0344 171.792 85.3151 199.844Z" fill="black"/>
<path d="M82.2558 247V234.81H79V231H107V234.81H103.744V247H82.2558Z" fill="black"/>
<path d="M82.2558 234.81V247H103.744V234.81M82.2558 234.81H103.744M82.2558 234.81H79V231H107V234.81H103.744" stroke="black" stroke-linejoin="round"/>
<path d="M105.588 231C104.188 228.704 101.389 223.881 101.389 222.963M101.389 222.963C101.389 222.044 104.988 209.951 106.788 204.019M101.389 222.963H85.1909M106.788 204.019H80.3916M106.788 204.019H109.188C110.387 204.019 110.147 200 109.188 200H77.9919C76.5521 200 76.792 204.019 77.9919 204.019H80.3916M85.1909 222.963C84.711 224.341 82.1913 228.895 80.9915 231M85.1909 222.963C83.7911 217.031 80.8715 204.937 80.3916 204.019" stroke="black" stroke-width="2.3" stroke-linejoin="round"/>
</svg>
