<svg width="378" height="413" viewBox="0 0 378 413" fill="none" xmlns="http://www.w3.org/2000/svg">
<path d="M102.597 199.725C101.026 200.207 100.024 200.318 99.4773 199.661C81.3614 177.897 40.155 127.402 30.7345 105.589C29.2402 102.47 28.3279 99.5784 27.313 95.2238C24.6923 83.9792 24.7519 67.8212 29.2011 55.1155C30.869 50.3522 32.4943 46.9483 36.4992 43.1064C30.8119 59.1083 32.7826 78.329 35.738 91.3349C36.6745 95.456 37.7099 98.9532 38.6318 101.526C41.5266 114.612 59.867 143.253 65.1384 151.081C69.3555 157.344 95.1625 187.04 102.597 199.725Z" fill="black"/>
<path d="M117.684 199.523C116.102 200.52 113.892 199.702 111.954 199.919C107.45 170.075 95.1206 95.5559 94.3926 78.5588C94.0299 74.6265 93.6752 69.8173 93.4019 64.5475C92.2866 43.0426 92.5273 13.8686 99.1126 5.32523C102.737 2.86434 111.108 -0.38693 118.631 3.63038C119.695 4.19862 120.418 4.8016 121.746 6.27643C127.903 15.0879 125.697 43.3049 124.162 65.3175C123.81 70.3575 123.656 74.8476 123.294 78.6749L117.684 199.523Z" fill="black"/>
<path d="M149.603 81.632C146.684 99.7114 129.779 170.737 122.813 200.183C124.479 200.514 123.38 200.709 125.99 200.248C137.923 171.579 168.409 105.082 171.641 89.3251C172.687 85.3647 173.752 80.2189 174.556 74.4297C177.043 56.526 177.032 32.4689 166.204 18.2933C165.687 17.6157 165.144 16.9606 164.576 16.3299C161.766 13.554 153.158 7.79095 141.215 6.94519C144.192 9.32256 146.751 13.3801 149.54 20.3604C153.114 29.3088 152.514 50.2203 151.155 66.7084C150.682 72.45 150.117 77.6552 149.603 81.632Z" fill="black"/>
<path d="M163.645 146.088C159.134 153.713 136.252 186.431 128.59 200.263C129.024 200.61 128.59 200.263 129.11 200.274C130.648 201.335 131.009 199.777 132.039 200.274C150.04 177.49 189.052 127.397 195.524 110.565C197.888 104.418 198.803 101.864 199.951 96.7404C201.674 89.0554 202.303 83.9213 202.379 80.3128C202.634 68.2487 199.941 59.5872 196.449 51.7258C192.557 42.9613 190.341 40.6561 187.228 37.8617C189.391 42.6482 191.174 48.7153 192.272 56.4638C193.589 65.7582 192.665 75.1465 191.031 82.9724C189.535 90.1392 187.443 95.9957 185.93 99.2698C184.006 104.537 169.284 136.556 163.645 146.088Z" fill="black"/>
<path d="M108.315 199.844C105.536 200.94 105.46 199.845 105.207 199.264C100.741 189.041 79.9337 162.397 72.9569 149.516C64.2358 133.415 52.0652 109.041 49.2315 93.0617C48.6328 89.6856 47.9152 84.9017 47.304 79.5134C45.9867 67.8997 45.1637 53.478 47.0912 44.2906C50.6183 27.4782 59.4268 18.0117 66.7544 14.3039C72.6165 11.3377 76.7904 10.6523 77.9981 10.6773C74.6213 13.7455 71.0615 18.8274 67.8275 27.8346C64.9681 35.7986 65.8711 54.7965 67.3317 69.7969C67.8384 75.001 68.4122 79.724 68.9193 83.3381C69.9362 103.815 98.0344 171.792 108.315 199.844Z" fill="black"/>
<path d="M42.0087 162.291C23.2099 206.403 20.8457 289.641 83.5683 344.442C146.291 399.243 227.057 388.844 269.774 362.429C312.491 336.014 347.576 293.285 347.576 225.319C347.576 154.5 311.484 114.563 282.28 95.2659C271.087 86.8308 240.095 70.2087 209.675 67.2015" stroke="black" stroke-width="6" stroke-linecap="round"/>
<path d="M60.5 318.5L64 315.5L82 331C89.7346 323.386 103.551 309.778 111.935 301.5C115.113 298.362 117.51 295.99 118.5 295L139.5 309C152.167 295.5 178.4 267.8 182 265C193.899 274.735 211.786 289.628 228.429 304C235.558 300.918 248.164 295.542 256 292.407C259.181 291.134 261.576 290.231 262.5 290L279.5 301.5L295 291C295.32 291.295 295.651 291.6 295.991 291.914C306.967 302.047 318.172 312.396 320.5 315.5C317.167 321.167 308.4 331.9 308 331.5C307.5 331 303 325 300.5 325C298 325 293.864 326 292.5 323C290 317.5 298.161 304.943 295.991 291.914C295.651 291.6 295.32 291.295 295 291L279.5 301.5C276.5 304 272.452 307.782 273.5 312.5C274.5 317 274.5 320.5 281 331.5C281.5 333.167 281.6 335.9 278 333.5C273.5 330.5 261 320 261 318C261 316 260 306.5 259.5 303C259 299.5 257 293.814 256 292.407C248.164 295.542 235.558 300.918 228.429 304C247.687 320.63 265.279 336.563 270 343C271.167 346 271.8 351.1 265 347.5C256.5 343 253 338 248.5 341.5C244 345 243 349.5 239.5 350C236 350.5 227 342 225.5 336.5C224 331 218.5 328.5 216.5 331C214.5 333.5 214 343 211 341.5C208 340 204.5 333 203 326C201.5 319 194.5 314 193 309C191.5 304 188.5 298 188 293C187.6 289 183.833 272.667 182 265C178.4 267.8 152.167 295.5 139.5 309L122 326.5C118.833 328.667 112.5 330.6 112.5 321C112.5 311.4 112.123 304 111.935 301.5C103.551 309.778 89.7346 323.386 82 331C78.4444 334.5 78.5 334 76 337.5L60.5 318.5Z" fill="black"/>
<path d="M82 331L64 315.5L60.5 318.5L76 337.5C78.5 334 78.4444 334.5 82 331ZM82 331C89.7346 323.386 103.551 309.778 111.935 301.5M139.5 309L118.5 295C117.51 295.99 115.113 298.362 111.935 301.5M139.5 309C152.167 295.5 178.4 267.8 182 265M139.5 309L122 326.5C118.833 328.667 112.5 330.6 112.5 321C112.5 311.4 112.123 304 111.935 301.5M182 265C193.899 274.735 211.786 289.628 228.429 304M182 265C183.833 272.667 187.6 289 188 293C188.5 298 191.5 304 193 309C194.5 314 201.5 319 203 326C204.5 333 208 340 211 341.5C214 343 214.5 333.5 216.5 331C218.5 328.5 224 331 225.5 336.5C227 342 236 350.5 239.5 350C243 349.5 244 345 248.5 341.5C253 338 256.5 343 265 347.5C271.8 351.1 271.167 346 270 343C265.279 336.563 247.687 320.63 228.429 304M228.429 304C235.558 300.918 248.164 295.542 256 292.407M279.5 301.5L262.5 290C261.576 290.231 259.181 291.134 256 292.407M279.5 301.5L295 291C295.32 291.295 295.651 291.6 295.991 291.914M279.5 301.5C276.5 304 272.452 307.782 273.5 312.5C274.5 317 274.5 320.5 281 331.5C281.5 333.167 281.6 335.9 278 333.5C273.5 330.5 261 320 261 318C261 316 260 306.5 259.5 303C259 299.5 257 293.814 256 292.407M295.991 291.914C306.967 302.047 318.172 312.396 320.5 315.5C317.167 321.167 308.4 331.9 308 331.5C307.5 331 303 325 300.5 325C298 325 293.864 326 292.5 323C290 317.5 298.161 304.943 295.991 291.914Z" stroke="black" stroke-width="2.5" stroke-linejoin="round"/>
<path d="M105.256 247V234.81H102V231H130V234.81H126.744V247H105.256Z" fill="black"/>
<path d="M105.256 234.81V247H126.744V234.81M105.256 234.81H126.744M105.256 234.81H102V231H130V234.81H126.744" stroke="black" stroke-linejoin="round"/>
<path d="M128.588 231C127.188 228.704 124.389 223.881 124.389 222.963M124.389 222.963C124.389 222.044 127.988 209.951 129.788 204.019M124.389 222.963H108.191M129.788 204.019H103.392M129.788 204.019H132.188C133.387 204.019 133.147 200 132.188 200H100.992C99.5521 200 99.792 204.019 100.992 204.019H103.392M108.191 222.963C107.711 224.341 105.191 228.895 103.992 231M108.191 222.963C106.791 217.031 103.872 204.937 103.392 204.019" stroke="black" stroke-width="2.3" stroke-linejoin="round"/>
</svg>
