<svg width="40" height="40" viewBox="0 0 40 40" fill="none" xmlns="http://www.w3.org/2000/svg">
<path d="M1.92719 40C1.56995 40 1.24519 39.8978 0.952908 39.6933C0.660623 39.4889 0.433291 39.2207 0.27091 38.8889C0.10853 38.5555 0.0188955 38.1941 0.00200797 37.8044C-0.0148796 37.4148 0.0747545 37.0355 0.27091 36.6667L18.2951 1.11111C18.49 0.74074 18.742 0.462963 19.0512 0.277778C19.3604 0.0925926 19.6767 0 20.0001 0C20.3249 0 20.6419 0.0925926 20.951 0.277778C21.2602 0.462963 21.5116 0.74074 21.7051 1.11111L39.7294 36.6667C39.9242 37.037 40.0139 37.417 39.9983 37.8067C39.9827 38.1963 39.893 38.557 39.7294 38.8889C39.567 39.2222 39.3397 39.4911 39.0474 39.6955C38.7551 39.9 38.4303 40.0015 38.0731 40H1.92719ZM5.28847 35.5555H34.7118L20.0001 6.66666L5.28847 35.5555ZM20.0001 33.3333C20.5522 33.3333 21.0153 33.12 21.3895 32.6933C21.7636 32.2667 21.95 31.7392 21.9487 31.1111C21.9487 30.4815 21.7616 29.9533 21.3875 29.5267C21.0134 29.1 20.5509 28.8874 20.0001 28.8889C19.448 28.8889 18.9849 29.1022 18.6108 29.5289C18.2367 29.9555 18.0503 30.483 18.0516 31.1111C18.0516 31.7407 18.2386 32.2689 18.6128 32.6955C18.9869 33.1222 19.4493 33.3348 20.0001 33.3333ZM20.0001 26.6667C20.5522 26.6667 21.0153 26.4533 21.3895 26.0267C21.7636 25.6 21.95 25.0726 21.9487 24.4444V17.7778C21.9487 17.1481 21.7616 16.62 21.3875 16.1933C21.0134 15.7667 20.5509 15.5541 20.0001 15.5555C19.448 15.5555 18.9849 15.7689 18.6108 16.1955C18.2367 16.6222 18.0503 17.1496 18.0516 17.7778V24.4444C18.0516 25.0741 18.2386 25.6022 18.6128 26.0289C18.9869 26.4555 19.4493 26.6681 20.0001 26.6667Z" fill="#DB0000"/>
</svg>
