<svg width="39" height="37" viewBox="0 0 39 37" fill="none" xmlns="http://www.w3.org/2000/svg">
<path d="M8.50216 21.0033L20.4681 32.9693C20.9142 33.4154 21.1373 33.9408 21.1373 34.5454C21.1373 35.15 20.9142 35.6743 20.4681 36.1183C20.022 36.5644 19.4967 36.7874 18.8921 36.7874C18.2875 36.7874 17.7632 36.5644 17.3192 36.1183L1.57448 20.3735C1.12838 19.9274 0.905333 19.4021 0.905333 18.7975C0.905333 18.1929 1.12838 17.6686 1.57448 17.2246L17.3192 1.47988C17.7653 1.03378 18.2906 0.810734 18.8952 0.810733C19.4998 0.810733 20.0241 1.03378 20.4681 1.47988C20.9142 1.92598 21.1373 2.45133 21.1373 3.05593C21.1373 3.66053 20.9142 4.18483 20.4681 4.62883L8.50216 16.5948L36.5278 16.5948C37.1051 16.5948 37.6168 16.8179 38.0629 17.264C38.509 17.7101 38.732 18.2218 38.732 18.7991C38.732 19.3764 38.509 19.8881 38.0629 20.3342C37.6168 20.7803 37.1051 21.0033 36.5278 21.0033L8.50216 21.0033Z" fill="black"/>
</svg>
