<svg width="100" height="100" viewBox="0 0 100 100" fill="none" xmlns="http://www.w3.org/2000/svg">
<path d="M11.1111 100C8.05556 100 5.43889 99.0217 3.26111 97.065C1.08704 95.105 0 92.75 0 90V20C0 17.25 1.08704 14.8967 3.26111 12.94C5.43889 10.98 8.05556 10 11.1111 10H16.6667V0H27.7778V10H72.2222V0H83.3333V10H88.8889C91.9444 10 94.5611 10.98 96.7389 12.94C98.913 14.8967 100 17.25 100 20V90C100 92.75 98.913 95.105 96.7389 97.065C94.5611 99.0217 91.9444 100 88.8889 100H11.1111ZM11.1111 90H88.8889V40H11.1111V90ZM11.1111 30H88.8889V20H11.1111V30ZM11.1111 30V20V30ZM50 60C48.4259 60 47.1074 59.52 46.0444 58.56C44.9778 57.6033 44.4444 56.4167 44.4444 55C44.4444 53.5833 44.9778 52.395 46.0444 51.435C47.1074 50.4783 48.4259 50 50 50C51.5741 50 52.8944 50.4783 53.9611 51.435C55.0241 52.395 55.5556 53.5833 55.5556 55C55.5556 56.4167 55.0241 57.6033 53.9611 58.56C52.8944 59.52 51.5741 60 50 60ZM27.7778 60C26.2037 60 24.8833 59.52 23.8167 58.56C22.7537 57.6033 22.2222 56.4167 22.2222 55C22.2222 53.5833 22.7537 52.395 23.8167 51.435C24.8833 50.4783 26.2037 50 27.7778 50C29.3519 50 30.6722 50.4783 31.7389 51.435C32.8019 52.395 33.3333 53.5833 33.3333 55C33.3333 56.4167 32.8019 57.6033 31.7389 58.56C30.6722 59.52 29.3519 60 27.7778 60ZM72.2222 60C70.6481 60 69.3296 59.52 68.2667 58.56C67.2 57.6033 66.6667 56.4167 66.6667 55C66.6667 53.5833 67.2 52.395 68.2667 51.435C69.3296 50.4783 70.6481 50 72.2222 50C73.7963 50 75.1148 50.4783 76.1778 51.435C77.2444 52.395 77.7778 53.5833 77.7778 55C77.7778 56.4167 77.2444 57.6033 76.1778 58.56C75.1148 59.52 73.7963 60 72.2222 60ZM50 80C48.4259 80 47.1074 79.52 46.0444 78.56C44.9778 77.6033 44.4444 76.4167 44.4444 75C44.4444 73.5833 44.9778 72.3967 46.0444 71.44C47.1074 70.48 48.4259 70 50 70C51.5741 70 52.8944 70.48 53.9611 71.44C55.0241 72.3967 55.5556 73.5833 55.5556 75C55.5556 76.4167 55.0241 77.6033 53.9611 78.56C52.8944 79.52 51.5741 80 50 80ZM27.7778 80C26.2037 80 24.8833 79.52 23.8167 78.56C22.7537 77.6033 22.2222 76.4167 22.2222 75C22.2222 73.5833 22.7537 72.3967 23.8167 71.44C24.8833 70.48 26.2037 70 27.7778 70C29.3519 70 30.6722 70.48 31.7389 71.44C32.8019 72.3967 33.3333 73.5833 33.3333 75C33.3333 76.4167 32.8019 77.6033 31.7389 78.56C30.6722 79.52 29.3519 80 27.7778 80ZM72.2222 80C70.6481 80 69.3296 79.52 68.2667 78.56C67.2 77.6033 66.6667 76.4167 66.6667 75C66.6667 73.5833 67.2 72.3967 68.2667 71.44C69.3296 70.48 70.6481 70 72.2222 70C73.7963 70 75.1148 70.48 76.1778 71.44C77.2444 72.3967 77.7778 73.5833 77.7778 75C77.7778 76.4167 77.2444 77.6033 76.1778 78.56C75.1148 79.52 73.7963 80 72.2222 80Z" fill="#101223"/>
</svg>
