<svg width="100" height="100" viewBox="0 0 100 100" fill="none" xmlns="http://www.w3.org/2000/svg">
<path d="M96.335 26.2259C98.9436 23.0645 100.242 19.0233 99.9628 14.9336C99.6837 10.8439 97.8485 7.01667 94.8347 4.23918C91.8209 1.46169 87.8577 -0.0548505 83.7602 0.0015168C79.6628 0.0578841 75.7427 1.68287 72.8064 4.54222C72.614 4.70091 72.4454 4.88642 72.3058 5.09308L58.9897 19.215L17.3891 4.09152C16.676 3.81993 15.8995 3.76052 15.1534 3.92046C14.4073 4.0804 13.7233 4.45286 13.184 4.99292L1.16945 17.0116C0.75279 17.438 0.433962 17.9501 0.235125 18.5122C0.036288 19.0743 -0.0377865 19.673 0.0180512 20.2667C0.0917567 20.8588 0.290573 21.4286 0.601294 21.938C0.912015 22.4474 1.32753 22.8848 1.82024 23.2212L33.759 44.5043L26.4001 51.9158H16.0375C14.972 51.9098 13.947 52.3236 13.184 53.0676L1.16945 65.0863C0.700459 65.5786 0.359365 66.1784 0.176077 66.8332C-0.00721081 67.4881 -0.0270929 68.1779 0.118173 68.8422C0.268722 69.5081 0.586892 70.1244 1.04249 70.6328C1.49808 71.1411 2.07598 71.5245 2.72133 71.7467L21.7945 78.2067L28.2523 97.2864C28.4744 97.9319 28.8577 98.51 29.3659 98.9658C29.874 99.4215 30.4902 99.7398 31.1559 99.8904L32.0569 99.9906C33.1204 99.9861 34.1417 99.5738 34.9104 98.8388L46.925 86.8201C47.6688 86.0569 48.0824 85.0315 48.0764 83.9657V73.6997L55.4854 66.9893L76.8113 98.2378C77.1454 98.7284 77.5831 99.1396 78.0934 99.4424C78.6038 99.7453 79.1743 99.9324 79.7649 99.9906C80.3494 100.03 80.9357 99.9474 81.487 99.7492C82.0383 99.551 82.5427 99.241 82.9688 98.8388L94.9833 86.8201C95.5232 86.2806 95.8956 85.5965 96.0554 84.8501C96.2153 84.1037 96.1559 83.327 95.8844 82.6136L80.7661 40.9989L95.6842 26.9771C95.9389 26.7621 96.1584 26.5086 96.335 26.2259ZM89.777 21.5186L89.5768 21.769L73.3571 36.9927C72.7904 37.5252 72.3932 38.2129 72.2151 38.97C72.0371 39.7271 72.086 40.5199 72.3559 41.2493L87.4742 82.914L80.716 89.7246L59.4903 58.6764C59.1691 58.2001 58.7468 57.8006 58.2536 57.5063C57.7604 57.212 57.2083 57.0301 56.6368 56.9737H56.1862C55.1881 56.988 54.2285 57.3613 53.483 58.0253L41.3683 69.0425C40.9667 69.4138 40.6444 69.8625 40.4208 70.3617C40.1971 70.8608 40.0766 71.4001 40.0667 71.947V82.3131L33.759 88.5728L28.7529 73.7498C28.5554 73.1685 28.227 72.6403 27.793 72.2062C27.359 71.772 26.831 71.4435 26.2499 71.2459L11.4319 66.188L17.6895 59.9283H28.0521C29.1176 59.9343 30.1426 59.5206 30.9056 58.7765L42.9201 46.7578C43.3368 46.3314 43.6556 45.8194 43.8545 45.2572C44.0533 44.6951 44.1274 44.0964 44.0715 43.5028C43.9978 42.9106 43.799 42.3409 43.4883 41.8315C43.1776 41.3221 42.7621 40.8846 42.2693 40.5482L10.3306 19.2651L17.0888 12.5046L58.7393 27.6281C59.4685 27.8981 60.261 27.947 61.0178 27.7689C61.7747 27.5907 62.4622 27.1934 62.9945 26.6265L78.8638 9.85047L78.9639 9.70024C80.5069 8.42628 82.4685 7.77195 84.467 7.86451C86.4656 7.95707 88.3583 8.78989 89.777 10.201C90.5247 10.9414 91.1183 11.8227 91.5234 12.7941C91.9285 13.7654 92.137 14.8074 92.137 15.8598C92.137 16.9123 91.9285 17.9543 91.5234 18.9256C91.1183 19.8969 90.5247 20.7782 89.777 21.5186Z" fill="#101223"/>
</svg>
