<svg width="30" height="32" viewBox="0 0 30 32" fill="none" xmlns="http://www.w3.org/2000/svg">
<path d="M9.375 3.55894C8.87772 3.55894 8.40081 3.74619 8.04918 4.0795C7.69754 4.41281 7.5 4.86487 7.5 5.33624C7.5 5.8076 7.69754 6.25967 8.04918 6.59297C8.40081 6.92628 8.87772 7.11353 9.375 7.11353C9.87228 7.11353 10.3492 6.92628 10.7008 6.59297C11.0525 6.25967 11.25 5.8076 11.25 5.33624C11.25 4.86487 11.0525 4.41281 10.7008 4.0795C10.3492 3.74619 9.87228 3.55894 9.375 3.55894ZM4.06875 3.55894C4.45613 2.51828 5.17451 1.61713 6.12487 0.979715C7.07524 0.342299 8.21079 0 9.375 0C10.5392 0 11.6748 0.342299 12.6251 0.979715C13.5755 1.61713 14.2939 2.51828 14.6812 3.55894H28.125C28.6223 3.55894 29.0992 3.74619 29.4508 4.0795C29.8025 4.41281 30 4.86487 30 5.33624C30 5.8076 29.8025 6.25967 29.4508 6.59297C29.0992 6.92628 28.6223 7.11353 28.125 7.11353H14.6812C14.2939 8.15419 13.5755 9.05534 12.6251 9.69276C11.6748 10.3302 10.5392 10.6725 9.375 10.6725C8.21079 10.6725 7.07524 10.3302 6.12487 9.69276C5.17451 9.05534 4.45613 8.15419 4.06875 7.11353H1.875C1.37772 7.11353 0.900806 6.92628 0.549175 6.59297C0.197544 6.25967 0 5.8076 0 5.33624C0 4.86487 0.197544 4.41281 0.549175 4.0795C0.900806 3.74619 1.37772 3.55894 1.875 3.55894H4.06875ZM20.625 14.2227C20.1277 14.2227 19.6508 14.41 19.2992 14.7433C18.9475 15.0766 18.75 15.5286 18.75 16C18.75 16.4714 18.9475 16.9234 19.2992 17.2567C19.6508 17.59 20.1277 17.7773 20.625 17.7773C21.1223 17.7773 21.5992 17.59 21.9508 17.2567C22.3025 16.9234 22.5 16.4714 22.5 16C22.5 15.5286 22.3025 15.0766 21.9508 14.7433C21.5992 14.41 21.1223 14.2227 20.625 14.2227ZM15.3188 14.2227C15.7061 13.182 16.4245 12.2809 17.3749 11.6435C18.3252 11.0061 19.4608 10.6638 20.625 10.6638C21.7892 10.6638 22.9248 11.0061 23.8751 11.6435C24.8255 12.2809 25.5439 13.182 25.9312 14.2227H28.125C28.6223 14.2227 29.0992 14.41 29.4508 14.7433C29.8025 15.0766 30 15.5286 30 16C30 16.4714 29.8025 16.9234 29.4508 17.2567C29.0992 17.59 28.6223 17.7773 28.125 17.7773H25.9312C25.5439 18.818 24.8255 19.7191 23.8751 20.3565C22.9248 20.9939 21.7892 21.3362 20.625 21.3362C19.4608 21.3362 18.3252 20.9939 17.3749 20.3565C16.4245 19.7191 15.7061 18.818 15.3188 17.7773H1.875C1.37772 17.7773 0.900806 17.59 0.549175 17.2567C0.197544 16.9234 0 16.4714 0 16C0 15.5286 0.197544 15.0766 0.549175 14.7433C0.900806 14.41 1.37772 14.2227 1.875 14.2227H15.3188ZM9.375 24.8865C8.87772 24.8865 8.40081 25.0737 8.04918 25.407C7.69754 25.7403 7.5 26.1924 7.5 26.6638C7.5 27.1351 7.69754 27.5872 8.04918 27.9205C8.40081 28.2538 8.87772 28.4411 9.375 28.4411C9.87228 28.4411 10.3492 28.2538 10.7008 27.9205C11.0525 27.5872 11.25 27.1351 11.25 26.6638C11.25 26.1924 11.0525 25.7403 10.7008 25.407C10.3492 25.0737 9.87228 24.8865 9.375 24.8865ZM4.06875 24.8865C4.45613 23.8458 5.17451 22.9447 6.12487 22.3072C7.07524 21.6698 8.21079 21.3275 9.375 21.3275C10.5392 21.3275 11.6748 21.6698 12.6251 22.3072C13.5755 22.9447 14.2939 23.8458 14.6812 24.8865H28.125C28.6223 24.8865 29.0992 25.0737 29.4508 25.407C29.8025 25.7403 30 26.1924 30 26.6638C30 27.1351 29.8025 27.5872 29.4508 27.9205C29.0992 28.2538 28.6223 28.4411 28.125 28.4411H14.6812C14.2939 29.4817 13.5755 30.3829 12.6251 31.0203C11.6748 31.6577 10.5392 32 9.375 32C8.21079 32 7.07524 31.6577 6.12487 31.0203C5.17451 30.3829 4.45613 29.4817 4.06875 28.4411H1.875C1.37772 28.4411 0.900806 28.2538 0.549175 27.9205C0.197544 27.5872 0 27.1351 0 26.6638C0 26.1924 0.197544 25.7403 0.549175 25.407C0.900806 25.0737 1.37772 24.8865 1.875 24.8865H4.06875Z" fill="black"/>
</svg>
