<svg width="120" height="120" viewBox="0 0 120 120" fill="none" xmlns="http://www.w3.org/2000/svg">
<path fill-rule="evenodd" clip-rule="evenodd" d="M60 114C89.823 114 114 89.823 114 60C114 30.177 89.823 6 60 6C30.177 6 6 30.177 6 60C6 89.823 30.177 114 60 114ZM60 120C93.138 120 120 93.138 120 60C120 26.862 93.138 0 60 0C26.862 0 0 26.862 0 60C0 93.138 26.862 120 60 120Z" fill="#101223"/>
<path d="M24 94.8898C24 91.7908 26.316 89.1718 29.4 88.8298C52.545 86.2678 67.56 86.4988 90.654 88.8868C91.8072 89.0079 92.9002 89.4622 93.7995 90.1943C94.6988 90.9264 95.3654 91.9045 95.7179 93.0092C96.0705 94.1138 96.0937 95.2973 95.7847 96.4149C95.4757 97.5326 94.8479 98.5361 93.978 99.3028C66.723 123.06 51.147 122.733 25.92 99.3268C24.69 98.1868 24 96.5668 24 94.8928V94.8898Z" fill="#101223"/>
<path fill-rule="evenodd" clip-rule="evenodd" d="M90.345 91.8688C67.434 89.4988 52.635 89.2768 29.727 91.8118C28.9729 91.8997 28.2778 92.2626 27.7746 92.8311C27.2715 93.3996 26.9957 94.1337 27 94.8928C27 95.7508 27.357 96.5638 27.96 97.1278C40.464 108.726 49.938 113.967 59.199 114C68.493 114.033 78.477 108.834 92.007 97.0438C92.4368 96.6612 92.7463 96.162 92.8977 95.6069C93.0491 95.0517 93.036 94.4645 92.86 93.9167C92.6839 93.3688 92.3525 92.8839 91.906 92.5209C91.4596 92.1579 90.9173 91.9324 90.345 91.8718V91.8688ZM29.07 85.8478C52.458 83.2588 67.692 83.4928 90.966 85.9018C92.7009 86.0829 94.3454 86.7659 95.6981 87.8672C97.0508 88.9685 98.053 90.4403 98.5822 92.1025C99.1113 93.7646 99.1443 95.545 98.6771 97.2256C98.21 98.9062 97.263 100.414 95.952 101.565C82.227 113.529 70.797 120.045 59.181 120C47.532 119.958 36.606 113.331 23.883 101.526C22.9721 100.677 22.2459 99.6501 21.7498 98.5083C21.2538 97.3665 20.9985 96.1347 21 94.8898C20.9956 92.6531 21.8166 90.4934 23.3057 88.8244C24.7948 87.1554 26.8473 86.0945 29.07 85.8448V85.8478Z" fill="#101223"/>
<path d="M84 48C84 54.3652 81.4714 60.4697 76.9706 64.9706C72.4697 69.4714 66.3652 72 60 72C53.6348 72 47.5303 69.4714 43.0294 64.9706C38.5286 60.4697 36 54.3652 36 48C36 41.6348 38.5286 35.5303 43.0294 31.0294C47.5303 26.5286 53.6348 24 60 24C66.3652 24 72.4697 26.5286 76.9706 31.0294C81.4714 35.5303 84 41.6348 84 48Z" fill="#101223"/>
<path fill-rule="evenodd" clip-rule="evenodd" d="M60 66C64.7739 66 69.3523 64.1036 72.7279 60.7279C76.1036 57.3523 78 52.7739 78 48C78 43.2261 76.1036 38.6477 72.7279 35.2721C69.3523 31.8964 64.7739 30 60 30C55.2261 30 50.6477 31.8964 47.2721 35.2721C43.8964 38.6477 42 43.2261 42 48C42 52.7739 43.8964 57.3523 47.2721 60.7279C50.6477 64.1036 55.2261 66 60 66ZM60 72C66.3652 72 72.4697 69.4714 76.9706 64.9706C81.4714 60.4697 84 54.3652 84 48C84 41.6348 81.4714 35.5303 76.9706 31.0294C72.4697 26.5286 66.3652 24 60 24C53.6348 24 47.5303 26.5286 43.0294 31.0294C38.5286 35.5303 36 41.6348 36 48C36 54.3652 38.5286 60.4697 43.0294 64.9706C47.5303 69.4714 53.6348 72 60 72Z" fill="#101223"/>
</svg>
