<svg width="102" height="97" viewBox="0 0 102 97" fill="none" xmlns="http://www.w3.org/2000/svg">
<path d="M51 97C50.0621 96.995 49.1396 96.7453 48.3134 96.2727C46.3554 95.0607 1.64679e-05 67.0372 1.64679e-05 31.0624C-0.0062777 24.7569 1.79183 18.5989 5.15487 13.4087C8.5179 8.2185 13.2862 4.24237 18.8248 2.00989C24.3634 -0.22259 30.4093 -0.605468 36.1574 0.912252C41.9055 2.42997 47.0829 5.77625 51 10.5054C54.9171 5.77625 60.0945 2.42997 65.8426 0.912252C71.5907 -0.605468 77.6366 -0.22259 83.1752 2.00989C88.7138 4.24237 93.4821 8.2185 96.8451 13.4087C100.208 18.5989 102.006 24.7569 102 31.0624C102 67.0372 55.6446 95.0607 53.6866 96.2727C52.8604 96.7453 51.9379 96.995 51 97ZM29.1429 11.669C24.3121 11.669 19.6793 13.7123 16.2634 17.3492C12.8476 20.9862 10.9286 25.919 10.9286 31.0624C10.9286 55.886 41.6196 78.1884 51 84.3943C60.3804 78.1884 91.0714 55.886 91.0714 31.0624C91.0672 26.5833 89.607 22.2438 86.9387 18.781C84.2704 15.3181 80.5586 12.9454 76.4337 12.0659C72.3088 11.1864 68.0251 11.8542 64.3102 13.956C60.5953 16.0578 57.6783 19.464 56.0545 23.596C55.6428 24.6631 54.9424 25.5757 54.0425 26.2181C53.1425 26.8604 52.0835 27.2033 51 27.2033C49.9165 27.2033 48.8575 26.8604 47.9575 26.2181C47.0575 25.5757 46.3572 24.6631 45.9455 23.596C44.5671 20.0611 42.2348 17.0411 39.2438 14.918C36.2529 12.7949 32.7376 11.6642 29.1429 11.669Z" fill="#101223"/>
</svg>
