<svg width="35" height="35" viewBox="0 0 35 35" fill="none" xmlns="http://www.w3.org/2000/svg">
<path d="M20.867 35H14.133C13.6841 35 13.295 34.8542 12.9658 34.5625C12.6366 34.2708 12.4421 33.9062 12.3822 33.4688L11.8435 29.4C11.4544 29.2542 11.0875 29.0792 10.7427 28.875C10.398 28.6708 10.0616 28.4521 9.73356 28.2188L5.82789 29.7937C5.40889 29.9396 4.98989 29.9542 4.5709 29.8375C4.1519 29.7208 3.82268 29.4729 3.58326 29.0938L0.261194 23.45C0.0217661 23.0708 -0.053055 22.6625 0.0367304 22.225C0.126516 21.7875 0.350979 21.4375 0.710121 21.175L4.07708 18.6812C4.04715 18.4771 4.03218 18.2799 4.03218 18.0898V16.9102C4.03218 16.7201 4.04715 16.5229 4.07708 16.3188L0.710121 13.825C0.350979 13.5625 0.126516 13.2125 0.0367304 12.775C-0.053055 12.3375 0.0217661 11.9292 0.261194 11.55L3.58326 5.90625C3.79275 5.49792 4.11419 5.24242 4.54755 5.13975C4.98092 5.03708 5.4077 5.05925 5.82789 5.20625L9.73356 6.78125C10.0628 6.54792 10.4069 6.32917 10.7661 6.125C11.1252 5.92083 11.4844 5.74583 11.8435 5.6L12.3822 1.53125C12.4421 1.09375 12.6366 0.729167 12.9658 0.4375C13.295 0.145833 13.6841 0 14.133 0H20.867C21.3159 0 21.705 0.145833 22.0342 0.4375C22.3634 0.729167 22.5579 1.09375 22.6178 1.53125L23.1565 5.6C23.5456 5.74583 23.9125 5.92083 24.2573 6.125C24.602 6.32917 24.9384 6.54792 25.2664 6.78125L29.1721 5.20625C29.5911 5.06042 30.0101 5.04583 30.4291 5.1625C30.8481 5.27917 31.1773 5.52708 31.4167 5.90625L34.7388 11.55C34.9782 11.9292 35.0531 12.3375 34.9633 12.775C34.8735 13.2125 34.649 13.5625 34.2899 13.825L30.9229 16.3188C30.9529 16.5229 30.9678 16.7201 30.9678 16.9102V18.0898C30.9678 18.2799 30.9379 18.4771 30.878 18.6812L34.245 21.175C34.6041 21.4375 34.8286 21.7875 34.9184 22.225C35.0082 22.6625 34.9333 23.0708 34.6939 23.45L31.3719 29.05C31.1324 29.4292 30.7954 29.6847 30.3609 29.8165C29.9263 29.9483 29.5001 29.9408 29.0823 29.7937L25.2664 28.2188C24.9372 28.4521 24.5931 28.6708 24.2339 28.875C23.8748 29.0792 23.5156 29.2542 23.1565 29.4L22.6178 33.4688C22.5579 33.9062 22.3634 34.2708 22.0342 34.5625C21.705 34.8542 21.3159 35 20.867 35ZM17.5898 23.625C19.3256 23.625 20.8071 23.0271 22.0342 21.8313C23.2612 20.6354 23.8748 19.1917 23.8748 17.5C23.8748 15.8083 23.2612 14.3646 22.0342 13.1687C20.8071 11.9729 19.3256 11.375 17.5898 11.375C15.824 11.375 14.3348 11.9729 13.1221 13.1687C11.9094 14.3646 11.3036 15.8083 11.3048 17.5C11.3048 19.1917 11.9106 20.6354 13.1221 21.8313C14.3336 23.0271 15.8228 23.625 17.5898 23.625ZM17.5898 20.125C16.8416 20.125 16.2053 19.8695 15.6809 19.3585C15.1566 18.8475 14.895 18.228 14.8962 17.5C14.8962 16.7708 15.1584 16.1508 15.6827 15.6398C16.2071 15.1288 16.8428 14.8738 17.5898 14.875C18.338 14.875 18.9743 15.1305 19.4986 15.6415C20.023 16.1525 20.2845 16.772 20.2833 17.5C20.2833 18.2292 20.0212 18.8492 19.4968 19.3602C18.9725 19.8713 18.3368 20.1262 17.5898 20.125ZM15.7043 31.5H19.2508L19.8793 26.8625C20.8071 26.6292 21.6678 26.2862 22.4615 25.8335C23.2552 25.3808 23.9807 24.8342 24.6379 24.1938L29.0823 25.9875L30.8331 23.0125L26.9724 20.1687C27.122 19.7604 27.2268 19.3305 27.2866 18.879C27.3465 18.4275 27.3764 17.9678 27.3764 17.5C27.3764 17.0333 27.3465 16.5743 27.2866 16.1228C27.2268 15.6713 27.122 15.2408 26.9724 14.8313L30.8331 11.9875L29.0823 9.0125L24.6379 10.85C23.9795 10.1792 23.254 9.618 22.4615 9.1665C21.669 8.715 20.8083 8.372 19.8793 8.1375L19.2957 3.5H15.7492L15.1207 8.1375C14.1929 8.37083 13.3328 8.71383 12.5403 9.1665C11.7477 9.61917 11.0217 10.1658 10.3621 10.8063L5.91768 9.0125L4.16686 11.9875L8.02763 14.7875C7.87799 15.225 7.77324 15.6625 7.71339 16.1C7.65353 16.5375 7.6236 17.0042 7.6236 17.5C7.6236 17.9667 7.65353 18.4187 7.71339 18.8562C7.77324 19.2937 7.87799 19.7312 8.02763 20.1687L4.16686 23.0125L5.91768 25.9875L10.3621 24.15C11.0205 24.8208 11.7465 25.3826 12.5403 25.8353C13.334 26.2879 14.1941 26.6303 15.1207 26.8625L15.7043 31.5Z" fill="black" fill-opacity="0.5"/>
</svg>
